<svg id="visual" viewBox="0 0 450 900" width="450" height="900" xmlns="http://www.w3.org/2000/svg" xmlns:xlink="http://www.w3.org/1999/xlink" version="1.1"><g transform="translate(267.6442563216567 460.6615335386213)"><path d="M228.7 -233.8C297.9 -214.4 356.8 -143.8 350.3 -77.1C343.7 -10.4 271.9 52.6 216.9 103.9C161.9 155.3 123.7 195.1 78.4 208.6C33.2 222.1 -19.2 209.2 -106.5 212.3C-193.8 215.3 -316.1 234.2 -380.7 188C-445.3 141.8 -452.1 30.4 -407.8 -46.1C-363.6 -122.6 -268.2 -164.4 -191.8 -182.5C-115.3 -200.7 -57.6 -195.3 11 -208.4C79.7 -221.6 159.4 -253.3 228.7 -233.8" fill="#B42B51"></path></g></svg>