<svg id="visual" viewBox="0 0 900 450" width="900" height="450" xmlns="http://www.w3.org/2000/svg" xmlns:xlink="http://www.w3.org/1999/xlink" version="1.1"><path d="M0 409L37.5 404.8C75 400.7 150 392.3 225 390.3C300 388.3 375 392.7 450 397.2C525 401.7 600 406.3 675 402.2C750 398 825 385 862.5 378.5L900 372L900 451L862.5 451C825 451 750 451 675 451C600 451 525 451 450 451C375 451 300 451 225 451C150 451 75 451 37.5 451L0 451Z" fill="#fff" stroke-linecap="round" stroke-linejoin="miter"></path></svg>