<svg id="visual" viewBox="0 0 900 600" width="900" height="600" xmlns="http://www.w3.org/2000/svg" xmlns:xlink="http://www.w3.org/1999/xlink" version="1.1"><path d="M0 449L30 458.5C60 468 120 487 180 497.3C240 507.7 300 509.3 360 497.8C420 486.3 480 461.7 540 444.8C600 428 660 419 720 415.5C780 412 840 414 870 415L900 416L900 601L870 601C840 601 780 601 720 601C660 601 600 601 540 601C480 601 420 601 360 601C300 601 240 601 180 601C120 601 60 601 30 601L0 601Z" fill="#B42B51" stroke-linecap="round" stroke-linejoin="miter"></path></svg>